<?xml version="1.0" encoding="utf-8"?>
<svg xmlns="http://www.w3.org/2000/svg" viewBox="0 0 147 129" xmlns:bx="https://boxy-svg.com">
  <defs>
    <pattern x="0" y="0" width="25" height="25" patternUnits="userSpaceOnUse" viewBox="0 0 100 100" id="pattern-0">
      <rect x="0" y="0" width="50" height="100" style="fill: black;"></rect>
    </pattern>
    <pattern id="pattern-0-0" href="#pattern-0" patternTransform="matrix(1, 0, 0, 1, 60.845515, 51.720889)"></pattern>
    <bx:grid x="0" y="0" width="1.616" height="1.616"></bx:grid>
  </defs>
  <path style="filter: none; paint-order: stroke; stroke-width: 1; fill: rgb(21, 235, 183);" d="M 73.082 23.795 L 95.294 67.332 L 85.422 67.332 L 73.082 41.664 L 60.741 67.332 L 50.869 67.332 L 73.003 23.642 L 73.082 23.795 Z M 88.635 75.193 L 98.635 75.19 L 121.224 119.122 L 110.878 119.08 L 88.635 75.193 Z M 90.702 119.313 L 83.407 102.558 L 89.927 95.308 L 101.166 119.313 L 90.702 119.313 Z M 68.376 71.989 L 73.376 63.189 L 78.376 71.989 L 78.376 119.323 L 68.376 119.323 L 68.376 71.989 Z M 56.864 95.315 L 63.407 102.565 L 56.087 119.32 L 45.587 119.32 L 56.864 95.315 Z M 35.65 119.115 L 25.651 119.084 L 47.791 75.489 L 57.791 75.489 L 35.65 119.115 Z"></path>
  <path style="paint-order: stroke; fill: rgb(21, 235, 183); stroke: rgb(186, 218, 85); stroke-miterlimit: 6.44; stroke-linecap: round; vector-effect: non-scaling-stroke; stroke-width: 0px;" d="M 24.16 118.577 C 24.16 118.577 18.21489019849437 111.72392022061186 16.333 106.924 C 13.8962212970058 100.7087896869775 12.623539058804973 91.36951573531749 12.68 83.673 C 12.735815963074003 76.06440494316146 13.946297650495188 68.25977325349352 16.583 61.005 C 19.343545045745937 53.40947888753814 23.988717216400794 45.259497508607645 29.257 39.209 C 34.238556781093294 33.487800487546984 40.97371223800529 28.585604407308857 47.001 25.304 C 52.197938599593286 22.474485749747117 57.519582118763076 20.856744572123052 62.843 19.834 C 67.96049230107793 18.850818218938546 73.11396442394766 18.60793399926472 78.314 19.104 C 83.749315298293 19.622510899267034 89.43885016386884 20.89169503939698 94.761 23.083 C 100.44076683389304 25.421547696211768 106.43176406654152 28.986144221645933 111.253 33.054 C 116.01857706314239 37.07489432275289 120.39860984468686 42.57148876586047 123.568 47.298 C 126.23269309101485 51.27185655063706 128.00528319415196 55.098177415042 129.578 59.174 C 131.11847490011306 63.16626508300463 132.22436427317788 67.47578046097692 132.96 71.488 C 133.6416371268746 75.20570660294673 133.93939354621628 78.50389679937803 133.996 82.403 C 134.06118334975608 86.8928874717065 133.8970550952239 92.21895859812143 133.043 96.91 C 132.20518420524837 101.51184430993588 130.7888232433404 106.3774038236552 128.981 110.298 C 127.39519854614832 113.73710121706644 122.6064215352215 118.77065209229393 123.176 119.364 C 123.722193348738 119.93298689244281 129.20102305190676 116.53276922434563 131.724 114.371 C 134.3676573056062 112.10582789555599 136.79762034860187 109.2486283458406 138.58 105.937 C 140.57709873385753 102.22642757997893 141.92951412396394 97.73745062324896 142.677 92.921 C 143.56142061175774 87.22220575748568 143.4442250857688 79.97127094973798 142.734 73.818 C 142.0522523244546 67.91145255322292 140.73881573793653 62.284912219822736 138.673 56.691 C 136.5063598645105 50.82407077330165 133.08649054600863 44.38486874421103 129.823 39.47 C 127.04398817089881 35.28476392038366 124.22178491727149 32.02848983803306 120.804 28.71 C 117.22328269824723 25.233311365004827 113.23506261681257 21.91253713259647 108.707 19.163 C 103.81091822066709 16.18999370664157 97.73995288854465 13.43996978412553 92.28 11.762 C 87.25435333568664 10.217502561917378 82.1085261008182 9.456261462090254 77.243 9.134 C 72.71731807572324 8.834247651815577 68.15911253171907 9.129985303508072 64.047 9.672 C 60.35615023725349 10.158488343526933 57.17042468972961 10.890520176130783 53.667 12.008 C 49.86513801265172 13.22067172559799 45.92093666211544 14.783304112393322 42.108 16.843 C 37.95445937659871 19.086685457990416 33.57677324363879 21.952136880091953 29.79 25.169 C 25.937212898949777 28.44194187869467 22.2928983437893 32.39109566265699 19.223 36.359 C 16.25793867867625 40.19140041194537 13.70881724872133 44.35090286266015 11.594 48.522 C 9.557134168835876 52.539351968663446 7.9302887958403945 56.75964197837761 6.675 60.899 C 5.47436309525124 64.85814152918125 4.6736713132269285 68.98044209308799 4.128 72.814 C 3.6286209477865947 76.32233636981533 3.347055679538325 79.28705497997784 3.392 82.992 C 3.4461791324615696 87.45820852069131 3.874091084274923 93.74400794352479 4.82 97.752 C 5.506105670078172 100.65915736987 6.447553727493337 102.79239383363895 7.62 105.034 C 8.744651321137681 107.184226748624 10.133646604615311 109.20436718732256 11.654 110.972 C 13.116715066142385 112.67261983901888 14.62079172519196 114.20623764618703 16.53 115.486 C 18.64246443558948 116.90200709263004 23.91 118.908 23.91 118.908" bx:d="M 24.16 118.577 R 16.333 106.924 R 12.68 83.673 R 16.583 61.005 R 29.257 39.209 R 47.001 25.304 R 62.843 19.834 R 78.314 19.104 R 94.761 23.083 R 111.253 33.054 R 123.568 47.298 R 129.578 59.174 R 132.96 71.488 R 133.996 82.403 R 133.043 96.91 R 128.981 110.298 R 123.176 119.364 R 131.724 114.371 R 138.58 105.937 R 142.677 92.921 R 142.734 73.818 R 138.673 56.691 R 129.823 39.47 R 120.804 28.71 R 108.707 19.163 R 92.28 11.762 R 77.243 9.134 R 64.047 9.672 R 53.667 12.008 R 42.108 16.843 R 29.79 25.169 R 19.223 36.359 R 11.594 48.522 R 6.675 60.899 R 4.128 72.814 R 3.392 82.992 R 4.82 97.752 R 7.62 105.034 R 11.654 110.972 R 16.53 115.486 R 23.91 118.908 1@7e22e3b7"></path>
</svg>